<svg id="Calque_1" data-name="Calque 1" xmlns="http://www.w3.org/2000/svg" viewBox="0 0 197.62 200.42">
	<defs>
		<style>
			.cls-1, .cls-2 {
			stroke: #232249;
			stroke-linecap: round;
			stroke-miterlimit: 10;
			stroke-width: 15px;
			}

			.cls-1, .cls-3 {
			fill: #fff;
			}

			.cls-2 {
			fill: none;
			}

			.cls-4 {
			fill: #c69c6d;
			}

			.cls-5 {
			fill: #232249;
			}
		</style>
	</defs>

	<!-- White circular background -->
	<circle cx="98.81" cy="100.21" r="99.2" fill="#ffffff" />

	<!-- Your original paths start here -->
	<path class="cls-5" d="m197.6,101.33c.11,38.55-23.94,75.79-59.54,90.98C73.13,220.45.4,171.77,0,101.33-.65,29.47,72.48-20.76,138.85,8.46c35.92,15.77,59.43,53.95,58.75,92.87h0Zm-.9,0c.02-38.11-25.27-72.9-60.72-85.96C75.2-8.02,7.85,35.52,7.2,101.33c.25,84.49,100.05,125.26,160.94,67.76,18.27-17.44,28.83-42.5,28.56-67.76h0Z"/>
	<path class="cls-5" d="m28.93,70.17c-2.06-9.52.93-19.32,5.89-27.39,10.79-17.49,34.59-28.69,54.23-19.56.51.24.44,1.05-.11,1.18-3.12.83-6.22,1.72-9.23,2.88-18.18,6.45-33.81,19.23-44.55,35.18-1.82,2.64-3.54,5.41-4.94,8.25-.23.52-1.08.43-1.19-.13,0,0-.1-.41-.1-.41h0Z"/>
	<path class="cls-2" d="m24.86,121.51s8.78,25.71,28.34,43.28c5.87,5.27,5.87-6.64,5.87-6.64.76-1.02-2.29-124.36-2.29-124.36"/>
	<line class="cls-1" x1="140.01" y1="31.85" x2="140.01" y2="169.21"/>
	<path class="cls-4" d="m126.26,100.6c-.23,18.88-1.77,48.59-13.48,63.94-5.57,6.95-13.59,7.02-19.75.68-14.07-15.23-17.59-44.65-17.73-64.62.14-20.01,3.61-49.36,17.71-64.64,6.14-6.3,14.18-6.31,19.78.69,11.71,15.38,13.22,45.04,13.46,63.95h0Zm0,0c-.21-18.44-2.57-37.66-11.19-54.13-7.59-13.48-15.55-13.82-21.78.88-6.63,16.71-7.74,35.3-7.99,53.24.24,17.94,1.32,36.54,7.97,53.26,6.16,14.59,14.17,14.51,21.82.88,8.62-16.47,10.97-35.69,11.18-54.13h0Z"/>
	<path class="cls-4" d="m79.91,106.32s9.51-17.74,21.92-10.19c14.87,9.04,23.23-18.21,23.23-18.21,0,0,8.44,79.78-20.62,89.27-18.79,6.14-24.53-29.03-24.53-60.88Z"/>
	<circle class="cls-3" cx="92.86" cy="107.91" r="2.62"/>
	<circle class="cls-3" cx="98.28" cy="113.95" r="1.01"/>
	<circle class="cls-3" cx="102.86" cy="102.42" r="2.13"/>
	<circle class="cls-3" cx="95.24" cy="130.36" r="1.71"/>
	<circle class="cls-3" cx="103.53" cy="136.96" r="2.12"/>
	<circle class="cls-3" cx="96.36" cy="125.78" r=".92"/>
	<circle class="cls-4" cx="99.59" cy="84.69" r="2.31"/>
	<circle class="cls-4" cx="94.64" cy="77.08" r=".84"/>
	<circle class="cls-4" cx="101.41" cy="71.99" r="1.55"/>
	<circle class="cls-4" cx="99.43" cy="59.04" r=".86"/>
	<circle class="cls-4" cx="108.37" cy="79.06" r="1.14"/>
	<circle class="cls-4" cx="91.96" cy="90.36" r="1.58"/>
	<path class="cls-5" d="m143,25.08c11.14,3.4,20.15,11.45,27.27,20.38,9.7,12.58,15.79,27.87,17.26,43.7,1.52,16.77-6.47,34.43-24.53,36.94-6.46.77-12.67-.36-18.13-3.69-.62-.37-.31-1.38.4-1.33,7.41.22,15.32-1.47,21.07-6.29,8.9-7.69,7.96-20.89,5.26-31.26-2.56-11.23-6.63-22.12-11.99-32.31-4.77-8.99-10.5-17.74-17.62-25.02-.52-.47.01-1.43.7-1.2,0,0,.3.08.3.08h0Z"/>
</svg>
